<svg id="Componente_1_1" data-name="Componente 1 – 1" xmlns="http://www.w3.org/2000/svg" width="329.579" height="585.842" viewBox="0 0 329.579 585.842">
  <path id="Icon_metro-mail-read" data-name="Icon metro-mail-read" d="M139.3,81.507H64.409V94.77H139.3ZM94.363,54.981H64.409V68.244H94.363Zm89.865-5.693V28.454H151.275L109.341,1.928,67.407,28.454H34.454V49.288L4.5,68.244V200.875H214.183V68.244L184.228,49.288Zm-134.8-7.571h119.82V92.452l-59.91,43.766L49.431,92.452V41.718ZM19.476,94.77l58.981,39.712L19.476,174.349V94.77Zm14.977,92.842L93.9,144.87l15.445,10.414L124.757,144.9l59.471,42.717H34.454Zm164.752-13.263-59.061-39.8L199.206,94.77v79.579Z" transform="translate(-4.499 384.967)"/>
  <path id="Icon_awesome-paper-plane" data-name="Icon awesome-paper-plane" d="M140.934,1.008,3.7,84.609A7.7,7.7,0,0,0,4.35,98.115l31.474,13.944L120.889,32.9c1.628-1.532,3.938.813,2.546,2.595L52.109,127.253v25.168c0,7.378,8.438,10.286,12.584,4.94l18.8-24.167,36.892,16.32a7.1,7.1,0,0,0,9.771-5.69L151.475,8.761C152.481,2.446,146.056-2.119,140.934,1.008Z" transform="translate(177.999 0.002)"/>
  <path id="Caminho_1" data-name="Caminho 1" d="M555.789,617.368c67.895-110.526,142.105-135.789,156.316-74.211s17.368,121.579-45.789,74.211-80.526-82.105-72.632-115.263,108.947-99.474,108.947-99.474" transform="translate(-499 -254)" fill="none" stroke="#707070" stroke-width="3" stroke-dasharray="30"/>
</svg>
