<svg xmlns="http://www.w3.org/2000/svg" width="209.684" height="198.947" viewBox="0 0 209.684 198.947">
  <path id="Icon_metro-mail-read" data-name="Icon metro-mail-read" d="M139.3,81.507H64.409V94.77H139.3ZM94.363,54.981H64.409V68.244H94.363Zm89.865-5.693V28.454H151.275L109.341,1.928,67.407,28.454H34.454V49.288L4.5,68.244V200.875H214.183V68.244L184.228,49.288Zm-134.8-7.571h119.82V92.452l-59.91,43.766L49.431,92.452V41.718ZM19.476,94.77l58.981,39.712L19.476,174.349V94.77Zm14.977,92.842L93.9,144.87l15.445,10.414L124.757,144.9l59.471,42.717H34.454Zm164.752-13.263-59.061-39.8L199.206,94.77v79.579Z" transform="translate(-4.499 -1.928)"/>
</svg>
